<svg width="1589" height="1572" viewBox="0 0 1589 1572" fill="none" xmlns="http://www.w3.org/2000/svg">
<path d="M998.609 1570.43C938.658 1570.43 899.488 1540.45 899.488 1468.84C899.488 1408.16 932.991 1361.25 1006.73 1361.25C1022.6 1361.25 1042.71 1364.43 1056.12 1369.73L1044.83 1412.05C1032.85 1407.83 1021.2 1404.63 1008.13 1404.63C970.412 1404.63 954.874 1429.34 954.874 1466.36C954.874 1502.35 968.98 1526.35 1006.02 1526.35C1023.31 1526.35 1035.31 1522.11 1046.94 1517.53L1052.94 1559.14C1042.71 1565.49 1021.2 1570.43 998.609 1570.43ZM514.669 1339.39C532.996 1339.39 547.81 1325.27 547.81 1307.29C547.81 1289.66 532.996 1276.25 514.669 1276.25C497.745 1276.25 482.568 1289.66 482.568 1307.29C482.568 1325.27 497.745 1339.39 514.669 1339.39ZM486.08 1566.9H537.939V1364.79C513.599 1362.32 486.08 1369.02 486.08 1407.12V1566.9ZM1165.46 1405C1142.2 1405 1119.96 1422.28 1119.96 1466.73C1119.96 1505.19 1134.41 1526.69 1164.77 1526.69C1190.51 1526.69 1210.28 1505.88 1210.28 1464.98C1210.28 1425.81 1196.16 1405 1165.46 1405ZM1163.36 1571.14C1105.85 1571.14 1065.64 1539.76 1065.64 1469.2C1065.64 1406.05 1107.96 1360.55 1169.35 1360.55C1226.5 1360.55 1263.52 1392.65 1263.52 1461.44C1263.52 1527.4 1223.33 1571.14 1163.36 1571.14ZM126.293 1408.16C115.005 1403.94 97.719 1399.71 83.6127 1399.71C67.3814 1399.71 55.0384 1403.94 55.0384 1418.76C55.0384 1453.68 144.635 1432.17 144.635 1504.12C144.635 1552.8 105.119 1571.48 60.6753 1571.48C40.2241 1571.48 19.7727 1568.32 1.06979 1562.67L4.23454 1519.99C4.23454 1519.99 33.864 1529.87 58.5651 1529.87C75.8363 1529.87 89.9578 1524.58 89.9578 1509.41C89.9578 1472.02 0 1496.01 0 1424.39C0 1379.6 37.7525 1361.25 79.3781 1361.25C104.064 1361.25 123.822 1365.84 135.803 1370.08L126.293 1408.16ZM462.449 1364.79C451.176 1424.75 422.24 1519.28 403.899 1566.9H348.86L310.067 1432.17H309.359L270.567 1566.9H215.89C198.242 1519.99 166.503 1422.28 157.34 1364.79H209.183L243.409 1503.77H244.102L285.02 1364.79H336.879L376.741 1502.72H377.449L412.007 1364.79H462.449ZM1525.98 1360.55C1565.14 1360.55 1588.06 1381.71 1588.06 1427.92V1566.9H1535.86V1438.51C1535.86 1417.7 1529.84 1403.94 1507.63 1403.94C1485.41 1403.94 1466 1423.34 1466 1458.26V1566.9H1414.87V1438.51C1414.87 1419.1 1408.52 1403.94 1386.28 1403.94C1363.01 1403.94 1345.01 1425.46 1345.01 1460.38V1566.9H1292.11V1364.79C1326.67 1360.55 1339.72 1374.66 1341.14 1397.23C1353.83 1374.66 1375.71 1360.55 1404.29 1360.55C1440.61 1360.55 1455.06 1380.66 1460.35 1399.71C1469.17 1379.6 1491.76 1360.55 1525.98 1360.55ZM694.901 1408.16C683.282 1403.94 666.327 1399.71 652.236 1399.71C635.99 1399.71 622.969 1403.94 622.969 1418.76C622.969 1453.68 713.258 1432.17 713.258 1504.12C713.258 1552.8 673.411 1571.48 629.313 1571.48C608.832 1571.48 588.381 1568.32 568.985 1562.67L572.873 1519.99C572.873 1519.99 602.487 1529.87 627.188 1529.87C643.781 1529.87 658.234 1524.58 658.234 1509.41C658.234 1472.02 567.915 1496.01 567.915 1424.39C567.915 1379.6 606.014 1361.25 647.293 1361.25C671.979 1361.25 692.445 1365.84 704.441 1370.08L694.901 1408.16ZM859.279 1408.16C848.006 1403.94 830.72 1399.71 816.599 1399.71C800.383 1399.71 787.678 1403.94 787.678 1418.76C787.678 1453.68 877.636 1432.17 877.636 1504.12C877.636 1552.8 838.135 1571.48 793.691 1571.48C773.225 1571.48 752.758 1568.32 734.071 1562.67L737.597 1519.99C737.597 1519.99 766.865 1529.87 791.566 1529.87C808.852 1529.87 822.959 1524.58 822.959 1509.41C822.959 1472.02 733.001 1496.01 733.001 1424.39C733.001 1379.6 770.753 1361.25 812.379 1361.25C837.065 1361.25 857.169 1365.84 868.819 1370.08L859.279 1408.16Z" fill="#152168"/>
<path d="M626.11 664.912C404.346 855.393 548.715 995.011 744.264 1076.23L745.378 858.864C649.77 839.26 705.575 712.555 626.104 664.907L626.11 664.912Z" fill="url(#paint0_linear_292_55)" stroke="#999999" stroke-width="1.25959"/>
<path d="M634.725 120.235C630.19 120.537 536.754 189.769 495.858 223.048C367.772 327.266 327.526 406.535 356.99 496.696C371.974 542.545 398.043 573.698 482.002 646.275C545.133 700.846 578.668 734.341 604.968 769.715C607.865 773.615 610.561 777.545 613.312 781.525C614.118 782.694 614.833 783.591 615.675 784.83C615.715 784.891 615.791 784.931 615.831 784.986C616.547 786.044 617.191 786.946 617.877 787.979C622.077 794.249 626.068 800.656 629.843 807.19C633.803 814.043 637.43 821.083 640.71 828.286C640.872 828.649 641.018 829.022 641.179 829.389C643.394 834.304 645.444 839.291 647.326 844.343C647.437 844.661 647.517 844.973 647.638 845.29C648.585 847.875 649.523 850.535 650.47 853.322C650.54 853.528 650.555 853.74 650.626 853.951C651.618 856.874 652.621 859.897 653.619 863.081C653.634 863.131 653.604 863.192 653.619 863.237C659.494 882.358 665.162 905.489 671.727 936.142C672.749 937.754 673.137 938.414 674.09 939.921C674.619 942.103 675.112 943.795 675.662 946.058C690.424 1007.07 705.731 1043.7 725.103 1064.31C726.675 1065.98 731.739 1069.3 736.439 1071.7C741.135 1074.11 745.896 1075.84 746.985 1075.48C749.489 1074.68 750.063 866.144 747.594 859.645C732.278 858.274 716.18 849.382 705.106 837.421C698.385 829.984 692.49 818.915 687.472 804.822C687.341 804.465 687.124 804.092 686.998 803.724C686.721 802.847 686.494 801.809 686.212 800.892C682.882 789.954 679.425 775.877 675.505 756.489C663.076 695.036 654.465 682.395 597.411 641.867C556.802 613.017 538.689 595.715 529.393 576.841C522.999 563.858 522.621 561.802 522.621 543.15C522.621 526.589 523.387 521.495 527.186 513.232C536.668 492.615 551.446 482.307 598.67 463.478C649.245 443.315 657.569 434.049 680.544 372.47C701.685 326.667 712.064 323.377 749.61 305.994C749.998 306.07 673.127 180.605 634.735 120.235H634.725Z" fill="url(#paint1_linear_292_55)" stroke="#4D4D4D" stroke-width="1.25959"/>
<path d="M746.475 1078.01C856.266 916.679 970.189 883.477 1073.55 522.73L668.512 165.233L752.184 309.753L746.475 1078.01Z" fill="url(#paint2_linear_292_55)" stroke="black" stroke-width="0.503836"/>
<path d="M811.874 112.678C789.332 113.917 767.043 114.854 747.474 124.639C747.227 124.15 747.665 123.656 747.897 246.421L1072.41 523.148C1072.41 523.148 1079.66 511.625 1083.47 484.887C1089.04 445.759 1090.24 415.846 1087.57 387.112C1081.94 326.727 1065.58 278.807 1035.45 234.545C1021.37 213.863 983.37 176.433 961.921 162.119C929.489 140.474 889.152 123.54 852.337 116.144C840.25 113.715 825.966 112.612 811.874 112.678Z" fill="url(#paint3_linear_292_55)" stroke="#999999" stroke-width="2.51918"/>
<path d="M745.619 1199.38C746.4 1199.01 751.993 307.037 749.912 306.03L656.501 154.582C653.982 170.518 941.279 406.827 1073.87 524.302L1097.03 547.196C1153.76 603.283 1190.04 648.104 1213.83 697.369C1235.28 741.757 1241.97 773.398 1240.09 821.469C1238.14 871.268 1224.03 918.79 1197.93 963.435C1173.61 1005.03 1126.51 1054.28 1080.82 1085.87C1002.2 1140.24 895.354 1180.63 787.518 1196.74C759.994 1200.86 747.826 1201.62 745.589 1199.39L745.619 1199.38Z" fill="url(#paint4_linear_292_55)"/>
<path d="M634.12 115.479C634.11 113.766 632.77 107.987 631.143 102.626C624.744 81.5255 629.279 57.1801 642.943 39.2586C649.86 30.1896 668.417 17.6441 682.987 12.1976C711.676 1.46588 744.304 -3.45156 746.244 2.67005C746.244 2.67005 747.035 248.058 748.34 247.751C749.423 251.53 640.988 155.262 634.12 115.479Z" fill="url(#paint5_linear_292_55)"/>
<path d="M747.735 859.796L750.425 304.82C727.763 315.759 704.848 314.68 677.757 380.053C656.676 435.727 647.416 445.083 590.744 466.511C493.086 495.099 495.051 579.003 598.478 642.995C656.525 680.864 667.156 704.635 678.15 770.063C688.529 815.554 700.53 851.125 747.735 859.816V859.796Z" fill="white"/>
<defs>
<linearGradient id="paint0_linear_292_55" x1="719.067" y1="994.925" x2="576.582" y2="823.57" gradientUnits="userSpaceOnUse">
<stop stop-color="#0019CE"/>
<stop offset="1" stop-color="#00A4CE" stop-opacity="0.498"/>
</linearGradient>
<linearGradient id="paint1_linear_292_55" x1="1070.44" y1="814.652" x2="605.099" y2="293.62" gradientUnits="userSpaceOnUse">
<stop stop-color="#040D1A"/>
<stop offset="1" stop-color="#FD110D" stop-opacity="0.994"/>
</linearGradient>
<linearGradient id="paint2_linear_292_55" x1="727.38" y1="691.515" x2="923.271" y2="602.789" gradientUnits="userSpaceOnUse">
<stop/>
<stop offset="1" stop-opacity="0"/>
</linearGradient>
<linearGradient id="paint3_linear_292_55" x1="1622.14" y1="610.75" x2="898.786" y2="268.469" gradientUnits="userSpaceOnUse">
<stop stop-color="#040D1A"/>
<stop offset="1" stop-color="#FD110D" stop-opacity="0.994"/>
</linearGradient>
<linearGradient id="paint4_linear_292_55" x1="801.041" y1="772.229" x2="924.229" y2="595.836" gradientUnits="userSpaceOnUse">
<stop stop-color="#0019CE"/>
<stop offset="1" stop-color="#00A4CE" stop-opacity="0.498"/>
</linearGradient>
<linearGradient id="paint5_linear_292_55" x1="711.661" y1="209.989" x2="691.91" y2="-7.83996" gradientUnits="userSpaceOnUse">
<stop stop-color="#0B4AD0"/>
<stop offset="1" stop-color="#0BB7D0" stop-opacity="0"/>
</linearGradient>
</defs>
</svg>
